<mxfile host="Electron" modified="2024-08-23T09:00:04.884Z" agent="Mozilla/5.0 (Windows NT 10.0; Win64; x64) AppleWebKit/537.36 (KHTML, like Gecko) draw.io/24.5.3 Chrome/124.0.6367.207 Electron/30.0.6 Safari/537.36" etag="rMG2mjfJWud1-yhF5SUs" version="24.5.3" type="device">
  <diagram name="Seite-1" id="AiCN5Q_24HWqCGqmMZWi">
    <mxGraphModel dx="4387" dy="1263" grid="1" gridSize="10" guides="1" tooltips="1" connect="1" arrows="1" fold="1" page="1" pageScale="1" pageWidth="1169" pageHeight="827" math="0" shadow="0">
      <root>
        <mxCell id="0" />
        <mxCell id="1" parent="0" />
        <mxCell id="LqknbGMkndK6xSMICAX0-1" value="EnvironmentManagment" style="shape=folder;fontStyle=1;spacingTop=10;tabWidth=40;tabHeight=14;tabPosition=left;html=1;whiteSpace=wrap;verticalAlign=top;align=left;" parent="1" vertex="1">
          <mxGeometry x="-1050" y="60" width="1110" height="980" as="geometry" />
        </mxCell>
        <mxCell id="LqknbGMkndK6xSMICAX0-2" value="EnvironmentManager" style="swimlane;fontStyle=0;childLayout=stackLayout;horizontal=1;startSize=26;fillColor=none;horizontalStack=0;resizeParent=1;resizeParentMax=0;resizeLast=0;collapsible=1;marginBottom=0;whiteSpace=wrap;html=1;" parent="1" vertex="1">
          <mxGeometry x="-1040" y="134" width="490" height="868" as="geometry" />
        </mxCell>
        <mxCell id="LqknbGMkndK6xSMICAX0-3" value="# &lt;b&gt;fleet_ctrl&lt;/b&gt;: FleetController&lt;div&gt;# &lt;b&gt;player_queue_list&lt;/b&gt;: deque[str]&lt;br&gt;&lt;/div&gt;&lt;div&gt;#&amp;nbsp;&lt;b&gt;active_anki_cars&lt;/b&gt;: List[Vehicle]&lt;/div&gt;&lt;div&gt;&lt;br&gt;&lt;/div&gt;&lt;div&gt;- &lt;b&gt;update_staff_ui_callback&lt;/b&gt;: Callable[[Dict[str, str], List[str], List[str]], None] | None&lt;br&gt;&lt;/div&gt;&lt;div&gt;-&amp;nbsp;&lt;span style=&quot;background-color: initial;&quot;&gt;&lt;b&gt;publish_removed_player_callback&lt;/b&gt;: Callable[[str], None] | None&lt;/span&gt;&lt;/div&gt;&lt;div&gt;&lt;span style=&quot;background-color: initial;&quot;&gt;- &lt;b&gt;publish_player_active_callback&lt;/b&gt;: Callable[[str], None] | None&lt;/span&gt;&lt;/div&gt;&lt;div&gt;&lt;span style=&quot;background-color: initial;&quot;&gt;&lt;br&gt;&lt;/span&gt;&lt;/div&gt;&lt;div&gt;&lt;span style=&quot;background-color: initial;&quot;&gt;#&amp;nbsp;&lt;/span&gt;&lt;span style=&quot;background-color: initial;&quot;&gt;&lt;b&gt;virtual_vehicle_num&lt;/b&gt;: int&lt;/span&gt;&lt;/div&gt;&lt;div&gt;&lt;span style=&quot;background-color: initial;&quot;&gt;# &lt;b&gt;remove_player_tasks&lt;/b&gt;: dict&lt;br&gt;&lt;/span&gt;&lt;/div&gt;&lt;div&gt;&lt;span style=&quot;background-color: initial;&quot;&gt;# &lt;b&gt;playing_time_checking_flag&lt;/b&gt;: bool&lt;br&gt;&lt;/span&gt;&lt;/div&gt;&lt;div&gt;&lt;span style=&quot;background-color: initial;&quot;&gt;&lt;br&gt;&lt;/span&gt;&lt;/div&gt;&lt;div&gt;&lt;span style=&quot;background-color: initial;&quot;&gt;+ &lt;b&gt;config_handler&lt;/b&gt;: ConfigurationHandler&lt;br&gt;&lt;/span&gt;&lt;/div&gt;&lt;div&gt;&lt;span style=&quot;background-color: initial;&quot;&gt;+&amp;nbsp;&lt;/span&gt;&lt;span style=&quot;background-color: initial;&quot;&gt;&lt;b&gt;logger&lt;/b&gt;: Logger&lt;/span&gt;&lt;/div&gt;" style="text;strokeColor=none;fillColor=none;align=left;verticalAlign=top;spacingLeft=4;spacingRight=4;overflow=hidden;rotatable=0;points=[[0,0.5],[1,0.5]];portConstraint=eastwest;whiteSpace=wrap;html=1;" parent="LqknbGMkndK6xSMICAX0-2" vertex="1">
          <mxGeometry y="26" width="490" height="214" as="geometry" />
        </mxCell>
        <mxCell id="LqknbGMkndK6xSMICAX0-4" value="&lt;div&gt;+ &lt;b&gt;__init__&lt;/b&gt;(&lt;span style=&quot;background-color: initial;&quot;&gt;fleet_ctrl: FleetController,&amp;nbsp;&lt;/span&gt;&lt;span style=&quot;background-color: initial;&quot;&gt;configuration_handler: ConfigurationHandler&lt;/span&gt;&lt;span style=&quot;background-color: initial;&quot;&gt;):&lt;/span&gt;&lt;b style=&quot;background-color: initial;&quot;&gt; &lt;/b&gt;&lt;span style=&quot;background-color: initial;&quot;&gt;None&lt;/span&gt;&lt;/div&gt;&lt;div&gt;+&amp;nbsp;&lt;b&gt;set_staff_ui_update_callback&lt;/b&gt;(Callable[[Dict[str, str], List[str], List[str]], None]): None&lt;br&gt;&lt;/div&gt;&lt;div&gt;+ &lt;b&gt;set_publish_removed_player_callback&lt;/b&gt;(Callable[[str], None]): None&lt;br&gt;&lt;/div&gt;&lt;div&gt;+ &lt;b&gt;set_publish_player_active_callback&lt;/b&gt;(Callable[[str], None]): None&lt;/div&gt;&lt;div&gt;+ &lt;b&gt;update_staff_ui&lt;/b&gt;(): None&lt;/div&gt;&lt;div&gt;&lt;br&gt;&lt;/div&gt;&lt;div&gt;- &lt;b&gt;publish_removed_player&lt;/b&gt;(player_id: str, reason: RemovalReason): None&lt;/div&gt;&lt;div&gt;- &lt;b&gt;publish_player_active&lt;/b&gt;(player: str): None&lt;/div&gt;&lt;div&gt;&lt;div&gt;#&amp;nbsp;&lt;span style=&quot;background-color: initial;&quot;&gt;&lt;b&gt;add_player_to_queue&lt;/b&gt;(player_id: str): bool&lt;/span&gt;&lt;/div&gt;&lt;div&gt;#&amp;nbsp;&lt;b&gt;add_new_player&lt;/b&gt;(player_id: str): bool&lt;/div&gt;&lt;div&gt;+&amp;nbsp;&lt;span style=&quot;background-color: initial;&quot;&gt;&lt;b&gt;put_player_on_next_free_spot&lt;/b&gt;(player_id: str): bool&lt;/span&gt;&lt;/div&gt;&lt;/div&gt;&lt;div&gt;&lt;span style=&quot;background-color: initial;&quot;&gt;#&amp;nbsp;&lt;/span&gt;&lt;span style=&quot;background-color: initial;&quot;&gt;&lt;b&gt;assign_players_to_vehicles&lt;/b&gt;(): bool&lt;/span&gt;&lt;/div&gt;&lt;div&gt;&lt;span style=&quot;background-color: initial;&quot;&gt;&lt;div&gt;+&lt;b&gt; manage_removal_from_game_for&lt;/b&gt;(&lt;span style=&quot;background-color: initial;&quot;&gt;player_id: str,&amp;nbsp;&lt;/span&gt;&lt;span style=&quot;background-color: initial;&quot;&gt;reason: RemovalReason): bool&lt;/span&gt;&lt;/div&gt;&lt;/span&gt;&lt;/div&gt;&lt;div&gt;&lt;div&gt;&lt;span style=&quot;background-color: initial;&quot;&gt;-&amp;nbsp;&lt;/span&gt;&lt;b style=&quot;background-color: initial;&quot;&gt;remove_player_from_waitlist&lt;/b&gt;&lt;span style=&quot;background-color: initial;&quot;&gt;(player_id: str): None&lt;/span&gt;&lt;br&gt;&lt;/div&gt;&lt;div&gt;-&amp;nbsp;&lt;b&gt;remove_player_from_vehicle&lt;/b&gt;(player: str): None&lt;/div&gt;&lt;/div&gt;&lt;div&gt;+ &lt;b&gt;get_waiting_players&lt;/b&gt;(): list[str]&lt;br&gt;&lt;/div&gt;&lt;div&gt;+&amp;nbsp;&lt;b&gt;start_playing_time_checker&lt;/b&gt;(): bool&lt;/div&gt;&lt;div&gt;+ &lt;b&gt;stop_running_playing_time_checker&lt;/b&gt;(): bool&lt;/div&gt;&lt;div&gt;-&amp;nbsp;async &lt;b&gt;check_playing_time_is_up&lt;/b&gt;(): None:&lt;/div&gt;&lt;div&gt;+ &lt;b&gt;schedule_remove_player_task&lt;/b&gt;(player: str, grace_period: int ): None&lt;br&gt;&lt;/div&gt;&lt;div&gt;-&amp;nbsp;&lt;b&gt;cancel_remove_player_task&lt;/b&gt;(player: str): None&lt;/div&gt;&lt;div&gt;-&amp;nbsp;async&amp;nbsp;&lt;b&gt;remove_player_after_grace_period&lt;/b&gt;(player: str, grace_period: int): None&lt;/div&gt;&lt;div&gt;&lt;br&gt;&lt;/div&gt;&lt;div&gt;+ &lt;i&gt;async &lt;/i&gt;&lt;b&gt;find_unpaired_anki_cars&lt;/b&gt;():&amp;nbsp;&lt;span style=&quot;background-color: initial;&quot;&gt;list[str]&lt;/span&gt;&lt;/div&gt;&lt;div&gt;+ &lt;b&gt;get_vehicle_list&lt;/b&gt;():&amp;nbsp;&lt;span style=&quot;background-color: initial;&quot;&gt;list[Vehicle]&lt;/span&gt;&lt;/div&gt;&lt;div&gt;+&amp;nbsp;&lt;span style=&quot;background-color: initial;&quot;&gt;&lt;b&gt;remove_vehicle_by_id&lt;/b&gt;(uuid_to_remove: str): bool&lt;/span&gt;&lt;/div&gt;&lt;div&gt;&lt;span style=&quot;background-color: initial;&quot;&gt;+ async &lt;b&gt;connect_to_physical_car_by&lt;/b&gt;(uuid: str): None&lt;br&gt;&lt;/span&gt;&lt;/div&gt;&lt;div&gt;&lt;span style=&quot;background-color: initial;&quot;&gt;-&amp;nbsp;&lt;/span&gt;&lt;span style=&quot;background-color: initial;&quot;&gt;&lt;b&gt;remove_non_reachable_vehicle&lt;/b&gt;(vehicle_id: str, player_id: str): None&lt;/span&gt;&lt;/div&gt;&lt;div&gt;&lt;span style=&quot;background-color: initial;&quot;&gt;+ &lt;b&gt;add_virtual_vehicle&lt;/b&gt;(): None&lt;br&gt;&lt;/span&gt;&lt;/div&gt;&lt;div&gt;&lt;span style=&quot;background-color: initial;&quot;&gt;#&amp;nbsp;&lt;/span&gt;&lt;span style=&quot;background-color: initial;&quot;&gt;&lt;b&gt;add_to_active_vehicle_list&lt;/b&gt;(new_vehicle: Vehicle): None&lt;/span&gt;&lt;/div&gt;&lt;div&gt;&lt;span style=&quot;background-color: initial;&quot;&gt;+&amp;nbsp;&lt;/span&gt;&lt;span style=&quot;background-color: initial;&quot;&gt;&lt;b&gt;get_vehicle_list&lt;/b&gt;(): list[Vehicle] | None&lt;/span&gt;&lt;/div&gt;&lt;div&gt;&lt;span style=&quot;background-color: initial;&quot;&gt;+ &lt;b&gt;get_controlled_cars_list&lt;/b&gt;(): list[str]&lt;/span&gt;&lt;/div&gt;&lt;div&gt;+&amp;nbsp;&lt;b&gt;get_free_car_list&lt;/b&gt;(): l&lt;span style=&quot;background-color: initial;&quot;&gt;ist[str]&lt;/span&gt;&lt;br&gt;&lt;/div&gt;&lt;div&gt;+ &lt;b&gt;get_mapped_cars&lt;/b&gt;(): l&lt;span style=&quot;background-color: initial;&quot;&gt;ist[dict]&lt;/span&gt;&lt;span style=&quot;background-color: initial;&quot;&gt;&lt;br&gt;&lt;/span&gt;&lt;/div&gt;&lt;div&gt;&lt;span style=&quot;background-color: initial;&quot;&gt;+ &lt;b&gt;get_vehicle_by_player_id&lt;/b&gt;(player: str): Vehicle | None&lt;br&gt;&lt;/span&gt;&lt;/div&gt;&lt;div&gt;&lt;span style=&quot;background-color: initial;&quot;&gt;+&amp;nbsp;&lt;/span&gt;&lt;span style=&quot;background-color: initial;&quot;&gt;&lt;b&gt;get_vehicle_by_vehicle_id&lt;/b&gt;(vehicle_id: str): Vehicle | None&lt;/span&gt;&lt;/div&gt;&lt;div&gt;+&amp;nbsp;&lt;b&gt;get_car_color_map&lt;/b&gt;(): dict[str, list[str]&lt;/div&gt;&lt;div&gt;&lt;br&gt;&lt;/div&gt;&lt;div&gt;+ &lt;b&gt;get_track&lt;/b&gt;():&amp;nbsp;FullTrack | None&lt;/div&gt;&lt;div&gt;+ &lt;b&gt;notify_new_track&lt;/b&gt;(new_track: FullTrack): None&lt;br&gt;&lt;/div&gt;&lt;div&gt;+&amp;nbsp;async &lt;b&gt;rescan_track&lt;/b&gt;(car: str): str | None&lt;/div&gt;&lt;div&gt;+ List[str] &lt;b&gt;get_waiting_player_list&lt;/b&gt;()&lt;/div&gt;&lt;div&gt;+ Vehicle &lt;b&gt;get_car_from_player&lt;/b&gt;(player: str)&lt;/div&gt;" style="text;strokeColor=default;fillColor=none;align=left;verticalAlign=top;spacingLeft=4;spacingRight=4;overflow=hidden;rotatable=0;points=[[0,0.5],[1,0.5]];portConstraint=eastwest;whiteSpace=wrap;html=1;" parent="LqknbGMkndK6xSMICAX0-2" vertex="1">
          <mxGeometry y="240" width="490" height="628" as="geometry" />
        </mxCell>
        <mxCell id="LqknbGMkndK6xSMICAX0-5" value="" style="rounded=0;orthogonalLoop=1;jettySize=auto;html=1;endArrow=halfCircle;endFill=0;endSize=6;strokeWidth=1;sketch=0;fontSize=12;curved=1;exitX=0;exitY=0.5;exitDx=0;exitDy=0;" parent="1" source="LqknbGMkndK6xSMICAX0-4" edge="1">
          <mxGeometry relative="1" as="geometry">
            <mxPoint x="-1080" y="229.70731707317077" as="sourcePoint" />
            <mxPoint x="-1120" y="688" as="targetPoint" />
          </mxGeometry>
        </mxCell>
        <mxCell id="LqknbGMkndK6xSMICAX0-6" value="FleetControler" style="edgeLabel;html=1;align=center;verticalAlign=middle;resizable=0;points=[];" parent="LqknbGMkndK6xSMICAX0-5" vertex="1" connectable="0">
          <mxGeometry x="0.6571" y="-1" relative="1" as="geometry">
            <mxPoint x="-52" y="1" as="offset" />
          </mxGeometry>
        </mxCell>
        <mxCell id="LqknbGMkndK6xSMICAX0-7" value="" style="ellipse;whiteSpace=wrap;html=1;align=center;aspect=fixed;fillColor=none;strokeColor=none;resizable=0;perimeter=centerPerimeter;rotatable=0;allowArrows=0;points=[];outlineConnect=1;" parent="1" vertex="1">
          <mxGeometry x="-960" y="196" width="10" height="10" as="geometry" />
        </mxCell>
        <mxCell id="LqknbGMkndK6xSMICAX0-8" value="TrackBuilder" style="swimlane;fontStyle=0;childLayout=stackLayout;horizontal=1;startSize=26;fillColor=none;horizontalStack=0;resizeParent=1;resizeParentMax=0;resizeLast=0;collapsible=1;marginBottom=0;whiteSpace=wrap;html=1;" parent="1" vertex="1">
          <mxGeometry x="-270" y="487" width="210" height="90" as="geometry" />
        </mxCell>
        <mxCell id="LqknbGMkndK6xSMICAX0-9" value="Creates the description of the virtual track." style="text;strokeColor=none;fillColor=none;align=left;verticalAlign=top;spacingLeft=4;spacingRight=4;overflow=hidden;rotatable=0;points=[[0,0.5],[1,0.5]];portConstraint=eastwest;whiteSpace=wrap;html=1;" parent="LqknbGMkndK6xSMICAX0-8" vertex="1">
          <mxGeometry y="26" width="210" height="64" as="geometry" />
        </mxCell>
        <mxCell id="LqknbGMkndK6xSMICAX0-10" value="VehicleListManager" style="swimlane;fontStyle=0;childLayout=stackLayout;horizontal=1;startSize=26;fillColor=none;horizontalStack=0;resizeParent=1;resizeParentMax=0;resizeLast=0;collapsible=1;marginBottom=0;whiteSpace=wrap;html=1;" parent="1" vertex="1">
          <mxGeometry x="-520" y="587" width="210" height="90" as="geometry" />
        </mxCell>
        <mxCell id="LqknbGMkndK6xSMICAX0-11" value="Create, add and remove vehicles from the vehicle list. Makes the queue available." style="text;strokeColor=none;fillColor=none;align=left;verticalAlign=top;spacingLeft=4;spacingRight=4;overflow=hidden;rotatable=0;points=[[0,0.5],[1,0.5]];portConstraint=eastwest;whiteSpace=wrap;html=1;" parent="LqknbGMkndK6xSMICAX0-10" vertex="1">
          <mxGeometry y="26" width="210" height="64" as="geometry" />
        </mxCell>
        <mxCell id="LqknbGMkndK6xSMICAX0-12" value="PlayerQueueManager" style="swimlane;fontStyle=0;childLayout=stackLayout;horizontal=1;startSize=26;fillColor=none;horizontalStack=0;resizeParent=1;resizeParentMax=0;resizeLast=0;collapsible=1;marginBottom=0;whiteSpace=wrap;html=1;" parent="1" vertex="1">
          <mxGeometry x="-270" y="587" width="210" height="90" as="geometry" />
        </mxCell>
        <mxCell id="LqknbGMkndK6xSMICAX0-13" value="Add and remove player from the player queue. Makes the queue available." style="text;strokeColor=none;fillColor=none;align=left;verticalAlign=top;spacingLeft=4;spacingRight=4;overflow=hidden;rotatable=0;points=[[0,0.5],[1,0.5]];portConstraint=eastwest;whiteSpace=wrap;html=1;" parent="LqknbGMkndK6xSMICAX0-12" vertex="1">
          <mxGeometry y="26" width="210" height="64" as="geometry" />
        </mxCell>
        <mxCell id="LqknbGMkndK6xSMICAX0-14" value="PlayerVehicleAssigner" style="swimlane;fontStyle=0;childLayout=stackLayout;horizontal=1;startSize=26;fillColor=none;horizontalStack=0;resizeParent=1;resizeParentMax=0;resizeLast=0;collapsible=1;marginBottom=0;whiteSpace=wrap;html=1;" parent="1" vertex="1">
          <mxGeometry x="-440" y="737" width="210" height="90" as="geometry" />
        </mxCell>
        <mxCell id="LqknbGMkndK6xSMICAX0-15" value="Assign waiting players to waiting vehicles. Remove players from cars. Remove vehicles from vehicle list and send player back to queue." style="text;strokeColor=none;fillColor=none;align=left;verticalAlign=top;spacingLeft=4;spacingRight=4;overflow=hidden;rotatable=0;points=[[0,0.5],[1,0.5]];portConstraint=eastwest;whiteSpace=wrap;html=1;" parent="LqknbGMkndK6xSMICAX0-14" vertex="1">
          <mxGeometry y="26" width="210" height="64" as="geometry" />
        </mxCell>
        <mxCell id="LqknbGMkndK6xSMICAX0-16" value="" style="endArrow=none;html=1;rounded=0;" parent="1" source="LqknbGMkndK6xSMICAX0-14" target="LqknbGMkndK6xSMICAX0-10" edge="1">
          <mxGeometry width="50" height="50" relative="1" as="geometry">
            <mxPoint x="-690" y="667" as="sourcePoint" />
            <mxPoint x="-640" y="617" as="targetPoint" />
          </mxGeometry>
        </mxCell>
        <mxCell id="LqknbGMkndK6xSMICAX0-17" value="" style="endArrow=none;html=1;rounded=0;" parent="1" source="LqknbGMkndK6xSMICAX0-14" target="LqknbGMkndK6xSMICAX0-12" edge="1">
          <mxGeometry width="50" height="50" relative="1" as="geometry">
            <mxPoint x="-690" y="667" as="sourcePoint" />
            <mxPoint x="-640" y="617" as="targetPoint" />
          </mxGeometry>
        </mxCell>
        <mxCell id="zsZVaT3cWuhneP0kkPv1-1" value="ConfigurationHandler" style="swimlane;fontStyle=1;align=center;verticalAlign=top;childLayout=stackLayout;horizontal=1;startSize=26;horizontalStack=0;resizeParent=1;resizeParentMax=0;resizeLast=0;collapsible=1;marginBottom=0;whiteSpace=wrap;html=1;" vertex="1" parent="1">
          <mxGeometry x="-425" y="260" width="210" height="170" as="geometry" />
        </mxCell>
        <mxCell id="zsZVaT3cWuhneP0kkPv1-2" value="&lt;span style=&quot;background-color: initial;&quot;&gt;+&amp;nbsp;&lt;/span&gt;&lt;span style=&quot;background-color: initial;&quot;&gt;&lt;b&gt;logger&lt;/b&gt;: Logger&lt;/span&gt;&lt;div&gt;&lt;span style=&quot;background-color: initial;&quot;&gt;+&amp;nbsp;&lt;/span&gt;&lt;span style=&quot;background-color: initial;&quot;&gt;&lt;b&gt;config_file&lt;/b&gt;: str&lt;/span&gt;&lt;/div&gt;&lt;div&gt;&lt;span style=&quot;background-color: initial;&quot;&gt;-&amp;nbsp;&lt;/span&gt;&lt;span style=&quot;background-color: initial;&quot;&gt;&lt;b&gt;config_tup&lt;/b&gt;: tuple[Any]&lt;/span&gt;&lt;/div&gt;" style="text;strokeColor=none;fillColor=none;align=left;verticalAlign=top;spacingLeft=4;spacingRight=4;overflow=hidden;rotatable=0;points=[[0,0.5],[1,0.5]];portConstraint=eastwest;whiteSpace=wrap;html=1;" vertex="1" parent="zsZVaT3cWuhneP0kkPv1-1">
          <mxGeometry y="26" width="210" height="64" as="geometry" />
        </mxCell>
        <mxCell id="zsZVaT3cWuhneP0kkPv1-3" value="" style="line;strokeWidth=1;fillColor=none;align=left;verticalAlign=middle;spacingTop=-1;spacingLeft=3;spacingRight=3;rotatable=0;labelPosition=right;points=[];portConstraint=eastwest;strokeColor=inherit;" vertex="1" parent="zsZVaT3cWuhneP0kkPv1-1">
          <mxGeometry y="90" width="210" height="8" as="geometry" />
        </mxCell>
        <mxCell id="zsZVaT3cWuhneP0kkPv1-4" value="+&lt;b&gt;__init__&lt;/b&gt;(config_file: str): None&lt;div&gt;-&amp;nbsp;&lt;b&gt;read_configuration&lt;/b&gt;(): tuple[Any]&lt;/div&gt;&lt;div&gt;+&amp;nbsp;&lt;b&gt;write_configuration&lt;/b&gt;(): None&lt;/div&gt;&lt;div&gt;+ &lt;b&gt;get_configuration&lt;/b&gt;(): dict&lt;br&gt;&lt;/div&gt;" style="text;strokeColor=none;fillColor=none;align=left;verticalAlign=top;spacingLeft=4;spacingRight=4;overflow=hidden;rotatable=0;points=[[0,0.5],[1,0.5]];portConstraint=eastwest;whiteSpace=wrap;html=1;" vertex="1" parent="zsZVaT3cWuhneP0kkPv1-1">
          <mxGeometry y="98" width="210" height="72" as="geometry" />
        </mxCell>
        <mxCell id="zsZVaT3cWuhneP0kkPv1-5" value="Singleton" style="swimlane;fontStyle=1;align=center;verticalAlign=top;childLayout=stackLayout;horizontal=1;startSize=26;horizontalStack=0;resizeParent=1;resizeParentMax=0;resizeLast=0;collapsible=1;marginBottom=0;whiteSpace=wrap;html=1;" vertex="1" parent="1">
          <mxGeometry x="-485" y="134" width="330" height="60" as="geometry" />
        </mxCell>
        <mxCell id="zsZVaT3cWuhneP0kkPv1-7" value="" style="line;strokeWidth=1;fillColor=none;align=left;verticalAlign=middle;spacingTop=-1;spacingLeft=3;spacingRight=3;rotatable=0;labelPosition=right;points=[];portConstraint=eastwest;strokeColor=inherit;" vertex="1" parent="zsZVaT3cWuhneP0kkPv1-5">
          <mxGeometry y="26" width="330" height="8" as="geometry" />
        </mxCell>
        <mxCell id="zsZVaT3cWuhneP0kkPv1-8" value="+&amp;nbsp;&lt;b&gt;__call__&lt;/b&gt;(*args, **kwargs): &#39;ConfigurationHandler&#39;" style="text;strokeColor=none;fillColor=none;align=left;verticalAlign=top;spacingLeft=4;spacingRight=4;overflow=hidden;rotatable=0;points=[[0,0.5],[1,0.5]];portConstraint=eastwest;whiteSpace=wrap;html=1;" vertex="1" parent="zsZVaT3cWuhneP0kkPv1-5">
          <mxGeometry y="34" width="330" height="26" as="geometry" />
        </mxCell>
        <mxCell id="zsZVaT3cWuhneP0kkPv1-10" style="edgeStyle=orthogonalEdgeStyle;rounded=0;orthogonalLoop=1;jettySize=auto;html=1;entryX=0.494;entryY=1.038;entryDx=0;entryDy=0;entryPerimeter=0;endArrow=block;endFill=0;" edge="1" parent="1" source="zsZVaT3cWuhneP0kkPv1-1" target="zsZVaT3cWuhneP0kkPv1-8">
          <mxGeometry relative="1" as="geometry" />
        </mxCell>
        <mxCell id="zsZVaT3cWuhneP0kkPv1-11" style="edgeStyle=orthogonalEdgeStyle;rounded=0;orthogonalLoop=1;jettySize=auto;html=1;" edge="1" parent="1" source="LqknbGMkndK6xSMICAX0-2" target="zsZVaT3cWuhneP0kkPv1-1">
          <mxGeometry relative="1" as="geometry" />
        </mxCell>
      </root>
    </mxGraphModel>
  </diagram>
</mxfile>
